<svg xmlns="http://www.w3.org/2000/svg" viewBox="0 0 100 100">
  <defs>
    <linearGradient id="grad" x1="0%" y1="0%" x2="100%" y2="100%">
      <stop offset="0%" style="stop-color:#00D26A;stop-opacity:1" />
      <stop offset="100%" style="stop-color:#059669;stop-opacity:1" />
    </linearGradient>
  </defs>
  <rect width="100" height="100" rx="20" fill="url(#grad)"/>
  <path d="M30 65 L30 35 L45 35 C52 35 57 40 57 47 C57 54 52 59 45 59 L38 59 L38 65 L30 65 Z M38 42 L38 52 L44 52 C47 52 49 50 49 47 C49 44 47 42 44 42 L38 42 Z" fill="white"/>
  <path d="M60 65 L60 35 L75 35 C82 35 87 39 87 45 C87 49 85 52 81 53 L81 53 C85 54 88 58 88 62 C88 65 85 65 82 65 L60 65 Z M68 42 L68 48 L73 48 C76 48 78 47 78 45 C78 43 76 42 73 42 L68 42 Z M68 55 L68 58 L74 58 C77 58 79 57 79 55.5 C79 54 77 53 74 53 L68 55 Z" fill="white" opacity="0.8"/>
</svg>